# xmcd
#
# Track frame offsets:
#	150
#	24068
#	44993
#	64058
#	85398
#	107605
#	126188
#	138486
#	167707
#	191611
#	214348
#	234992
#
# Disc length: 3424 seconds
#
# Revision: 0
# Processed by: cddbd v1.5.2PL0 Copyright (c) Steve Scherf et al.
# Submitted via: EZCDAudioConverter 7.1.0.1
#
DISCID=a90d5e0c
DTITLE=朴树 - 猎户星座
DYEAR=2017
DGENRE=
TTITLE0=空帆船
TTITLE1=Never Knows Tomorrow
TTITLE2=在木星
TTITLE3=好好地
TTITLE4=XX青春
TTITLE5=Baby, До свидания
TTITLE6=
TTITLE7=No Fear In My Heart
TTITLE8=Forever Young
TTITLE9=平凡之路
TTITLE10=清白之年
TTITLE11=猎户星座
EXTD=
EXTT0=
EXTT1=
EXTT2=
EXTT3=
EXTT4=
EXTT5=
EXTT6=
EXTT7=
EXTT8=
EXTT9=
EXTT10=
EXTT11=
PLAYORDER=
